<?xml version="1.0" encoding="utf-8"?>
<svg fill="#818cf8" width="800px" height="800px" viewBox="0 0 24.00 24.00" role="img" xmlns="http://www.w3.org/2000/svg" stroke="#818cf8" stroke-width="0.00024000000000000003" transform="matrix(-1, 0, 0, 1, 0, 0)rotate(0)">
  <g>
    <path d="M 23.527 7.303 L 21.848 3.703 C 21.706 3.398 21.414 3.205 21.096 3.205 L 16.899 3.205 C 16.581 3.205 16.291 3.397 16.147 3.703 L 14.702 6.805 L 11.023 6.805 C 10.705 6.805 10.414 6.997 10.272 7.303 L 8.593 10.903 C 8.474 11.156 8.474 11.455 8.593 11.708 L 10.272 15.308 C 10.414 15.612 10.705 15.805 11.023 15.805 L 14.702 15.805 L 16.148 18.907 C 16.291 19.213 16.581 19.405 16.899 19.405 L 21.096 19.405 C 21.414 19.405 21.706 19.212 21.848 18.907 L 23.527 15.307 C 23.645 15.054 23.645 14.755 23.527 14.502 L 22.036 11.305 L 23.526 8.107 C 23.645 7.854 23.645 7.556 23.527 7.303 Z M 17.418 5.005 L 20.578 5.005 L 21.837 7.705 L 20.578 10.405 L 17.418 10.405 L 16.158 7.705 L 17.418 5.005 Z M 10.282 11.305 L 11.541 8.605 L 14.702 8.605 L 15.961 11.305 L 14.702 14.005 L 11.541 14.005 L 10.282 11.305 Z M 20.578 17.605 L 17.418 17.605 L 16.158 14.905 L 17.418 12.205 L 20.578 12.205 L 21.837 14.905 L 20.578 17.605 Z" style="fill: rgb(235, 218, 25);"/>
    <path d="M 17.709 10.949 L 15.916 7.349 C 15.764 7.044 15.454 6.851 15.113 6.851 L 10.631 6.851 C 10.291 6.851 9.981 7.044 9.829 7.349 L 8.284 10.451 L 4.355 10.451 C 4.016 10.451 3.706 10.644 3.553 10.949 L 1.76 14.549 C 1.633 14.802 1.633 15.101 1.76 15.354 L 3.553 18.954 C 3.706 19.259 4.016 19.451 4.355 19.451 L 8.284 19.451 L 9.83 22.553 C 9.981 22.859 10.292 23.051 10.631 23.051 L 15.113 23.051 C 15.454 23.051 15.763 22.859 15.916 22.553 L 17.709 18.953 C 17.835 18.7 17.835 18.401 17.709 18.148 L 16.116 14.951 L 17.708 11.753 C 17.834 11.5 17.835 11.202 17.709 10.949 Z M 11.184 8.651 L 14.56 8.651 L 15.905 11.351 L 14.56 14.051 L 11.184 14.051 L 9.841 11.351 L 11.184 8.651 Z M 3.565 14.951 L 4.91 12.251 L 8.284 12.251 L 9.63 14.951 L 8.284 17.651 L 4.91 17.651 L 3.565 14.951 Z M 14.56 21.251 L 11.184 21.251 L 9.841 18.551 L 11.184 15.851 L 14.56 15.851 L 15.905 18.551 L 14.56 21.251 Z" style="fill: rgb(235, 218, 25);"/>
    <g id="SVGRepo_bgCarrier" stroke-width="0" transform="matrix(0.326008, 0, 0, 0.347986, 1.48718, 0.20513)" style="">
      <path d="M 5.701 14.999 C 4.035 15.637 3.001 16.522 3.001 17.499 C 3.001 19.433 7.029 20.999 12.001 20.999 C 16.97 20.999 21.001 19.433 21.001 17.499 C 21.001 16.522 19.967 15.637 18.301 14.999 M 12.001 9.001 L 12.01 9.001 M 18.001 9.001 C 18.001 13.065 13.501 14.999 12.001 17.999 C 10.501 14.999 6.001 13.065 6.001 9.001 C 6.001 5.685 8.685 3.001 12.001 3.001 C 15.314 3.001 18.001 5.685 18.001 9.001 Z M 13.001 9.001 C 13.001 9.553 12.553 10.001 12.001 10.001 C 11.449 10.001 11.001 9.553 11.001 9.001 C 11.001 8.447 11.449 8.001 12.001 8.001 C 12.553 8.001 13.001 8.447 13.001 9.001 Z" stroke="#818cf8" stroke-width="2" stroke-linecap="round" stroke-linejoin="round" style="fill: none;"/>
    </g>
  </g>
</svg>