<?xml version="1.0" encoding="utf-8"?>
<svg xmlns="http://www.w3.org/2000/svg" viewBox="0 0 500 500">
  <g id="SVGRepo_bgCarrier" stroke-width="0" transform="matrix(3.950753, 0, 0, 3.798128, 307.444458, 230.521378)" style=""/>
  <g id="SVGRepo_tracerCarrier" stroke-linecap="round" stroke-linejoin="round" transform="matrix(3.950753, 0, 0, 3.798128, 307.444458, 230.521378)" style=""/>
  <g id="SVGRepo_iconCarrier" transform="matrix(12.663842, 0, 0, 11.737001, 205.809738, 449.355133)" style="">
    <path d="M -11.213 -28.383 C -12.432 -27.974 -13.187 -27.405 -13.187 -26.775 C -13.187 -25.532 -10.24 -24.525 -6.605 -24.525 C -2.969 -24.525 -0.022 -25.532 -0.022 -26.775 C -0.022 -27.405 -0.778 -27.974 -1.997 -28.383 M -6.605 -32.241 L -6.598 -32.241 M -2.216 -32.241 C -2.216 -29.628 -5.508 -28.383 -6.605 -26.454 C -7.702 -28.383 -10.993 -29.628 -10.993 -32.241 C -10.993 -34.372 -9.029 -36.099 -6.605 -36.099 C -4.181 -36.099 -2.216 -34.372 -2.216 -32.241 Z M -5.873 -32.241 C -5.873 -31.886 -6.201 -31.598 -6.605 -31.598 C -7.009 -31.598 -7.336 -31.886 -7.336 -32.241 C -7.336 -32.596 -7.009 -32.884 -6.605 -32.884 C -6.201 -32.884 -5.873 -32.596 -5.873 -32.241 Z" stroke="#818cf8" stroke-width="2" stroke-linecap="round" stroke-linejoin="round" style="fill: none;"/>
  </g>
  <g id="group-1" stroke-width="0" transform="matrix(8.173137, 0, 0, 7.715507, 73.470093, 171.760696)" style=""/>
  <g id="group-2" stroke-linecap="round" stroke-linejoin="round" stroke="#CCCCCC" stroke-width="0.048" transform="matrix(8.173137, 0, 0, 7.715507, 73.470093, 171.760696)" style=""/>
  <g id="group-3" transform="matrix(152.413193, 0, 0, 120.765892, -1524.235474, -760.136169)" style="">
    <path d="M 13.118 8.106 L 12.79 7.473 C 12.762 7.42 12.706 7.386 12.643 7.386 L 11.823 7.386 C 11.761 7.386 11.704 7.42 11.676 7.473 L 11.394 8.019 L 10.675 8.019 C 10.612 8.019 10.556 8.052 10.528 8.106 L 10.2 8.739 C 10.177 8.783 10.177 8.836 10.2 8.88 L 10.528 9.513 C 10.556 9.567 10.612 9.601 10.675 9.601 L 11.394 9.601 L 11.676 10.146 C 11.704 10.199 11.761 10.233 11.823 10.233 L 12.643 10.233 C 12.706 10.233 12.762 10.199 12.79 10.146 L 13.118 9.513 C 13.141 9.468 13.141 9.416 13.118 9.371 L 12.827 8.81 L 13.118 8.247 C 13.141 8.203 13.141 8.151 13.118 8.106 Z M 11.924 7.702 L 12.542 7.702 L 12.788 8.177 L 12.542 8.651 L 11.924 8.651 L 11.678 8.177 L 11.924 7.702 Z M 10.53 8.81 L 10.776 8.335 L 11.394 8.335 L 11.64 8.81 L 11.394 9.284 L 10.776 9.284 L 10.53 8.81 Z M 12.542 9.917 L 11.924 9.917 L 11.678 9.442 L 11.924 8.968 L 12.542 8.968 L 12.788 9.442 L 12.542 9.917 Z" style="fill: rgb(186, 218, 85);"/>
  </g>
</svg>